<mxfile host="app.diagrams.net" modified="2022-01-24T05:44:24.700Z" agent="5.0 (Macintosh; Intel Mac OS X 10_15_7) AppleWebKit/537.36 (KHTML, like Gecko) Chrome/96.0.4664.110 Safari/537.36" etag="s_ZNIWeWSO9CLQgczjdP" version="16.4.5" type="github">
  <diagram id="C5RBs43oDa-KdzZeNtuy" name="Page-1">
    <mxGraphModel dx="1298" dy="809" grid="1" gridSize="10" guides="1" tooltips="1" connect="1" arrows="1" fold="1" page="1" pageScale="1" pageWidth="827" pageHeight="1169" background="#F1FAEE" math="0" shadow="0">
      <root>
        <mxCell id="WIyWlLk6GJQsqaUBKTNV-0" />
        <mxCell id="WIyWlLk6GJQsqaUBKTNV-1" parent="WIyWlLk6GJQsqaUBKTNV-0" />
        <mxCell id="B8ZehWBBjIDl2lozoN9I-24" value="" style="edgeStyle=orthogonalEdgeStyle;rounded=1;orthogonalLoop=1;jettySize=auto;html=1;startArrow=none;curved=1;sketch=1;labelBackgroundColor=#F1FAEE;strokeColor=#457B9D;fontColor=#1D3557;" edge="1" parent="WIyWlLk6GJQsqaUBKTNV-1" source="3FMjM7pCY8h0ESjjnFQf-15" target="B8ZehWBBjIDl2lozoN9I-7">
          <mxGeometry relative="1" as="geometry" />
        </mxCell>
        <mxCell id="B8ZehWBBjIDl2lozoN9I-26" value="" style="edgeStyle=orthogonalEdgeStyle;rounded=1;orthogonalLoop=1;jettySize=auto;html=1;curved=1;sketch=1;labelBackgroundColor=#F1FAEE;strokeColor=#457B9D;fontColor=#1D3557;" edge="1" parent="WIyWlLk6GJQsqaUBKTNV-1" source="WIyWlLk6GJQsqaUBKTNV-3" target="3FMjM7pCY8h0ESjjnFQf-15">
          <mxGeometry relative="1" as="geometry" />
        </mxCell>
        <mxCell id="WIyWlLk6GJQsqaUBKTNV-3" value="接收团单妥投MQ" style="rounded=1;whiteSpace=wrap;html=1;fontSize=12;glass=0;strokeWidth=1;shadow=0;sketch=1;fillColor=#A8DADC;strokeColor=#457B9D;fontColor=#1D3557;" parent="WIyWlLk6GJQsqaUBKTNV-1" vertex="1">
          <mxGeometry x="110" y="231" width="120" height="40" as="geometry" />
        </mxCell>
        <mxCell id="3FMjM7pCY8h0ESjjnFQf-18" value="" style="edgeStyle=orthogonalEdgeStyle;rounded=1;orthogonalLoop=1;jettySize=auto;html=1;curved=1;sketch=1;labelBackgroundColor=#F1FAEE;strokeColor=#457B9D;fontColor=#1D3557;" parent="WIyWlLk6GJQsqaUBKTNV-1" source="WIyWlLk6GJQsqaUBKTNV-7" target="3FMjM7pCY8h0ESjjnFQf-17" edge="1">
          <mxGeometry relative="1" as="geometry" />
        </mxCell>
        <mxCell id="WIyWlLk6GJQsqaUBKTNV-7" value="根据物流团单查询C单" style="rounded=1;whiteSpace=wrap;html=1;fontSize=12;glass=0;strokeWidth=1;shadow=0;sketch=1;fillColor=#A8DADC;strokeColor=#457B9D;fontColor=#1D3557;" parent="WIyWlLk6GJQsqaUBKTNV-1" vertex="1">
          <mxGeometry x="40" y="490" width="120" height="40" as="geometry" />
        </mxCell>
        <mxCell id="B8ZehWBBjIDl2lozoN9I-8" value="" style="edgeStyle=orthogonalEdgeStyle;rounded=1;orthogonalLoop=1;jettySize=auto;html=1;curved=1;sketch=1;labelBackgroundColor=#F1FAEE;strokeColor=#457B9D;fontColor=#1D3557;" edge="1" parent="WIyWlLk6GJQsqaUBKTNV-1" source="3FMjM7pCY8h0ESjjnFQf-15" target="B8ZehWBBjIDl2lozoN9I-7">
          <mxGeometry relative="1" as="geometry" />
        </mxCell>
        <mxCell id="3FMjM7pCY8h0ESjjnFQf-20" value="" style="edgeStyle=orthogonalEdgeStyle;rounded=1;orthogonalLoop=1;jettySize=auto;html=1;curved=1;sketch=1;labelBackgroundColor=#F1FAEE;strokeColor=#457B9D;fontColor=#1D3557;" parent="WIyWlLk6GJQsqaUBKTNV-1" source="3FMjM7pCY8h0ESjjnFQf-17" target="3FMjM7pCY8h0ESjjnFQf-19" edge="1">
          <mxGeometry relative="1" as="geometry" />
        </mxCell>
        <mxCell id="3FMjM7pCY8h0ESjjnFQf-17" value="根据C单查询cpin" style="rounded=1;whiteSpace=wrap;html=1;fontSize=12;glass=0;strokeWidth=1;shadow=0;sketch=1;fillColor=#A8DADC;strokeColor=#457B9D;fontColor=#1D3557;" parent="WIyWlLk6GJQsqaUBKTNV-1" vertex="1">
          <mxGeometry x="40" y="540" width="120" height="40" as="geometry" />
        </mxCell>
        <mxCell id="3FMjM7pCY8h0ESjjnFQf-19" value="根据cpin查微信昵称" style="rounded=1;whiteSpace=wrap;html=1;fontSize=12;glass=0;strokeWidth=1;shadow=0;sketch=1;fillColor=#A8DADC;strokeColor=#457B9D;fontColor=#1D3557;" parent="WIyWlLk6GJQsqaUBKTNV-1" vertex="1">
          <mxGeometry x="40" y="590" width="120" height="40" as="geometry" />
        </mxCell>
        <mxCell id="3FMjM7pCY8h0ESjjnFQf-22" value="根据headId查询千手群编号" style="rounded=1;whiteSpace=wrap;html=1;fontSize=12;glass=0;strokeWidth=1;shadow=0;sketch=1;fillColor=#A8DADC;strokeColor=#457B9D;fontColor=#1D3557;" parent="WIyWlLk6GJQsqaUBKTNV-1" vertex="1">
          <mxGeometry x="190" y="490" width="120" height="40" as="geometry" />
        </mxCell>
        <mxCell id="3FMjM7pCY8h0ESjjnFQf-28" value="" style="edgeStyle=orthogonalEdgeStyle;rounded=1;orthogonalLoop=1;jettySize=auto;html=1;curved=1;sketch=1;labelBackgroundColor=#F1FAEE;strokeColor=#457B9D;fontColor=#1D3557;" parent="WIyWlLk6GJQsqaUBKTNV-1" source="3FMjM7pCY8h0ESjjnFQf-24" target="3FMjM7pCY8h0ESjjnFQf-27" edge="1">
          <mxGeometry relative="1" as="geometry" />
        </mxCell>
        <mxCell id="3FMjM7pCY8h0ESjjnFQf-24" value="根据千手群编号和微信昵称查询要@的群成员信息" style="rounded=1;whiteSpace=wrap;html=1;fontSize=12;glass=0;strokeWidth=1;shadow=0;sketch=1;fillColor=#A8DADC;strokeColor=#457B9D;fontColor=#1D3557;" parent="WIyWlLk6GJQsqaUBKTNV-1" vertex="1">
          <mxGeometry x="110" y="660" width="120" height="55" as="geometry" />
        </mxCell>
        <mxCell id="3FMjM7pCY8h0ESjjnFQf-32" value="" style="edgeStyle=orthogonalEdgeStyle;rounded=1;orthogonalLoop=1;jettySize=auto;html=1;curved=1;sketch=1;labelBackgroundColor=#F1FAEE;strokeColor=#457B9D;fontColor=#1D3557;" parent="WIyWlLk6GJQsqaUBKTNV-1" source="3FMjM7pCY8h0ESjjnFQf-27" target="3FMjM7pCY8h0ESjjnFQf-31" edge="1">
          <mxGeometry relative="1" as="geometry" />
        </mxCell>
        <mxCell id="3FMjM7pCY8h0ESjjnFQf-27" value="拼装模版" style="rounded=1;whiteSpace=wrap;html=1;fontSize=12;glass=0;strokeWidth=1;shadow=0;sketch=1;fillColor=#A8DADC;strokeColor=#457B9D;fontColor=#1D3557;" parent="WIyWlLk6GJQsqaUBKTNV-1" vertex="1">
          <mxGeometry x="110" y="726" width="120" height="42.5" as="geometry" />
        </mxCell>
        <mxCell id="3FMjM7pCY8h0ESjjnFQf-31" value="发送群消息" style="rounded=1;whiteSpace=wrap;html=1;fontSize=12;glass=0;strokeWidth=1;shadow=0;sketch=1;fillColor=#A8DADC;strokeColor=#457B9D;fontColor=#1D3557;" parent="WIyWlLk6GJQsqaUBKTNV-1" vertex="1">
          <mxGeometry x="110" y="779.5" width="120" height="42.5" as="geometry" />
        </mxCell>
        <mxCell id="3FMjM7pCY8h0ESjjnFQf-36" value="千手群成员信息维护" style="swimlane;rounded=1;sketch=1;fillColor=#A8DADC;strokeColor=#457B9D;fontColor=#1D3557;" parent="WIyWlLk6GJQsqaUBKTNV-1" vertex="1">
          <mxGeometry x="350" y="552.5" width="160" height="270" as="geometry" />
        </mxCell>
        <mxCell id="3FMjM7pCY8h0ESjjnFQf-7" value="新增修改千手群成员信息表" style="rounded=1;whiteSpace=wrap;html=1;sketch=1;fillColor=#A8DADC;strokeColor=#457B9D;fontColor=#1D3557;" parent="3FMjM7pCY8h0ESjjnFQf-36" vertex="1">
          <mxGeometry x="20" y="190" width="120" height="60" as="geometry" />
        </mxCell>
        <mxCell id="3FMjM7pCY8h0ESjjnFQf-9" value="对接千手查询群成员信息列表、进群、退群三种回调" style="rounded=1;whiteSpace=wrap;html=1;sketch=1;fillColor=#A8DADC;strokeColor=#457B9D;fontColor=#1D3557;" parent="3FMjM7pCY8h0ESjjnFQf-36" vertex="1">
          <mxGeometry x="20" y="115" width="120" height="60" as="geometry" />
        </mxCell>
        <mxCell id="3FMjM7pCY8h0ESjjnFQf-10" style="edgeStyle=orthogonalEdgeStyle;rounded=1;orthogonalLoop=1;jettySize=auto;html=1;entryX=0.5;entryY=0;entryDx=0;entryDy=0;exitX=0.5;exitY=1;exitDx=0;exitDy=0;curved=1;sketch=1;labelBackgroundColor=#F1FAEE;strokeColor=#457B9D;fontColor=#1D3557;" parent="3FMjM7pCY8h0ESjjnFQf-36" source="3FMjM7pCY8h0ESjjnFQf-9" target="3FMjM7pCY8h0ESjjnFQf-7" edge="1">
          <mxGeometry relative="1" as="geometry" />
        </mxCell>
        <mxCell id="3FMjM7pCY8h0ESjjnFQf-6" value="定时任务查询千手所有的群成员，触发群成员列表回调" style="rounded=1;whiteSpace=wrap;html=1;sketch=1;fillColor=#A8DADC;strokeColor=#457B9D;fontColor=#1D3557;" parent="3FMjM7pCY8h0ESjjnFQf-36" vertex="1">
          <mxGeometry x="20" y="40" width="120" height="60" as="geometry" />
        </mxCell>
        <mxCell id="3FMjM7pCY8h0ESjjnFQf-8" value="" style="edgeStyle=orthogonalEdgeStyle;rounded=1;orthogonalLoop=1;jettySize=auto;html=1;entryX=0.5;entryY=0;entryDx=0;entryDy=0;curved=1;sketch=1;labelBackgroundColor=#F1FAEE;strokeColor=#457B9D;fontColor=#1D3557;" parent="3FMjM7pCY8h0ESjjnFQf-36" source="3FMjM7pCY8h0ESjjnFQf-6" target="3FMjM7pCY8h0ESjjnFQf-9" edge="1">
          <mxGeometry relative="1" as="geometry" />
        </mxCell>
        <mxCell id="3FMjM7pCY8h0ESjjnFQf-41" value="" style="endArrow=classic;startArrow=classic;html=1;entryX=1;entryY=0.5;entryDx=0;entryDy=0;exitX=0;exitY=0.5;exitDx=0;exitDy=0;edgeStyle=orthogonalEdgeStyle;rounded=1;curved=1;sketch=1;labelBackgroundColor=#F1FAEE;strokeColor=#457B9D;fontColor=#1D3557;" parent="WIyWlLk6GJQsqaUBKTNV-1" source="3FMjM7pCY8h0ESjjnFQf-36" target="3FMjM7pCY8h0ESjjnFQf-24" edge="1">
          <mxGeometry width="50" height="50" relative="1" as="geometry">
            <mxPoint x="425" y="417.5" as="sourcePoint" />
            <mxPoint x="335" y="497.5" as="targetPoint" />
          </mxGeometry>
        </mxCell>
        <mxCell id="B8ZehWBBjIDl2lozoN9I-17" value="" style="edgeStyle=orthogonalEdgeStyle;rounded=1;orthogonalLoop=1;jettySize=auto;html=1;curved=1;sketch=1;labelBackgroundColor=#F1FAEE;strokeColor=#457B9D;fontColor=#1D3557;" edge="1" parent="WIyWlLk6GJQsqaUBKTNV-1" source="B8ZehWBBjIDl2lozoN9I-4" target="B8ZehWBBjIDl2lozoN9I-16">
          <mxGeometry relative="1" as="geometry" />
        </mxCell>
        <mxCell id="B8ZehWBBjIDl2lozoN9I-19" value="否" style="edgeLabel;html=1;align=center;verticalAlign=middle;resizable=0;points=[];rounded=1;sketch=1;labelBackgroundColor=#F1FAEE;fontColor=#1D3557;" vertex="1" connectable="0" parent="B8ZehWBBjIDl2lozoN9I-17">
          <mxGeometry x="-0.6333" y="-3" relative="1" as="geometry">
            <mxPoint y="-10" as="offset" />
          </mxGeometry>
        </mxCell>
        <mxCell id="B8ZehWBBjIDl2lozoN9I-4" value="是否发送消息" style="rhombus;whiteSpace=wrap;html=1;rounded=1;sketch=1;fillColor=#A8DADC;strokeColor=#457B9D;fontColor=#1D3557;" vertex="1" parent="WIyWlLk6GJQsqaUBKTNV-1">
          <mxGeometry x="120" y="387" width="100" height="60" as="geometry" />
        </mxCell>
        <mxCell id="B8ZehWBBjIDl2lozoN9I-9" value="" style="edgeStyle=orthogonalEdgeStyle;rounded=1;orthogonalLoop=1;jettySize=auto;html=1;curved=1;sketch=1;labelBackgroundColor=#F1FAEE;strokeColor=#457B9D;fontColor=#1D3557;" edge="1" parent="WIyWlLk6GJQsqaUBKTNV-1" source="B8ZehWBBjIDl2lozoN9I-7" target="B8ZehWBBjIDl2lozoN9I-4">
          <mxGeometry relative="1" as="geometry" />
        </mxCell>
        <mxCell id="B8ZehWBBjIDl2lozoN9I-21" value="" style="edgeStyle=orthogonalEdgeStyle;rounded=1;orthogonalLoop=1;jettySize=auto;html=1;entryX=0;entryY=0.5;entryDx=0;entryDy=0;curved=1;sketch=1;labelBackgroundColor=#F1FAEE;strokeColor=#457B9D;fontColor=#1D3557;" edge="1" parent="WIyWlLk6GJQsqaUBKTNV-1" source="B8ZehWBBjIDl2lozoN9I-7" target="B8ZehWBBjIDl2lozoN9I-20">
          <mxGeometry relative="1" as="geometry" />
        </mxCell>
        <mxCell id="B8ZehWBBjIDl2lozoN9I-7" value="根据物headId查询群配置" style="rounded=1;whiteSpace=wrap;html=1;fontSize=12;glass=0;strokeWidth=1;shadow=0;sketch=1;fillColor=#A8DADC;strokeColor=#457B9D;fontColor=#1D3557;" vertex="1" parent="WIyWlLk6GJQsqaUBKTNV-1">
          <mxGeometry x="110" y="334" width="120" height="40" as="geometry" />
        </mxCell>
        <mxCell id="B8ZehWBBjIDl2lozoN9I-16" value="结束" style="ellipse;whiteSpace=wrap;html=1;rounded=1;sketch=1;fillColor=#A8DADC;strokeColor=#457B9D;fontColor=#1D3557;" vertex="1" parent="WIyWlLk6GJQsqaUBKTNV-1">
          <mxGeometry x="240" y="397" width="70" height="40" as="geometry" />
        </mxCell>
        <mxCell id="B8ZehWBBjIDl2lozoN9I-20" value="群发配置维护" style="swimlane;rounded=1;sketch=1;fillColor=#A8DADC;strokeColor=#457B9D;fontColor=#1D3557;" vertex="1" parent="WIyWlLk6GJQsqaUBKTNV-1">
          <mxGeometry x="355" y="309" width="150" height="90" as="geometry" />
        </mxCell>
        <mxCell id="B8ZehWBBjIDl2lozoN9I-3" value="小程序保存是否群发消息" style="rounded=1;whiteSpace=wrap;html=1;sketch=1;fillColor=#A8DADC;strokeColor=#457B9D;fontColor=#1D3557;" vertex="1" parent="B8ZehWBBjIDl2lozoN9I-20">
          <mxGeometry x="16" y="30" width="120" height="50" as="geometry" />
        </mxCell>
        <mxCell id="3FMjM7pCY8h0ESjjnFQf-15" value="根据物流团单查询headId" style="rounded=1;whiteSpace=wrap;html=1;fontSize=12;glass=0;strokeWidth=1;shadow=0;sketch=1;fillColor=#A8DADC;strokeColor=#457B9D;fontColor=#1D3557;" parent="WIyWlLk6GJQsqaUBKTNV-1" vertex="1">
          <mxGeometry x="110" y="282" width="120" height="40" as="geometry" />
        </mxCell>
        <mxCell id="B8ZehWBBjIDl2lozoN9I-34" value="" style="endArrow=classic;html=1;rounded=1;entryX=0.5;entryY=0;entryDx=0;entryDy=0;exitX=0.5;exitY=1;exitDx=0;exitDy=0;edgeStyle=orthogonalEdgeStyle;curved=1;sketch=1;labelBackgroundColor=#F1FAEE;strokeColor=#457B9D;fontColor=#1D3557;" edge="1" parent="WIyWlLk6GJQsqaUBKTNV-1" source="B8ZehWBBjIDl2lozoN9I-4" target="WIyWlLk6GJQsqaUBKTNV-7">
          <mxGeometry width="50" height="50" relative="1" as="geometry">
            <mxPoint x="170" y="450" as="sourcePoint" />
            <mxPoint x="190" y="500" as="targetPoint" />
          </mxGeometry>
        </mxCell>
        <mxCell id="B8ZehWBBjIDl2lozoN9I-35" value="" style="endArrow=classic;html=1;rounded=1;entryX=0.5;entryY=0;entryDx=0;entryDy=0;exitX=0.5;exitY=1;exitDx=0;exitDy=0;edgeStyle=orthogonalEdgeStyle;curved=1;sketch=1;labelBackgroundColor=#F1FAEE;strokeColor=#457B9D;fontColor=#1D3557;" edge="1" parent="WIyWlLk6GJQsqaUBKTNV-1" source="B8ZehWBBjIDl2lozoN9I-4" target="3FMjM7pCY8h0ESjjnFQf-22">
          <mxGeometry width="50" height="50" relative="1" as="geometry">
            <mxPoint x="180" y="450" as="sourcePoint" />
            <mxPoint x="190" y="500" as="targetPoint" />
          </mxGeometry>
        </mxCell>
        <mxCell id="B8ZehWBBjIDl2lozoN9I-36" value="" style="endArrow=classic;html=1;rounded=1;exitX=0.5;exitY=1;exitDx=0;exitDy=0;entryX=0.5;entryY=0;entryDx=0;entryDy=0;edgeStyle=orthogonalEdgeStyle;curved=1;sketch=1;labelBackgroundColor=#F1FAEE;strokeColor=#457B9D;fontColor=#1D3557;" edge="1" parent="WIyWlLk6GJQsqaUBKTNV-1" source="3FMjM7pCY8h0ESjjnFQf-22" target="3FMjM7pCY8h0ESjjnFQf-24">
          <mxGeometry width="50" height="50" relative="1" as="geometry">
            <mxPoint x="140" y="550" as="sourcePoint" />
            <mxPoint x="190" y="500" as="targetPoint" />
          </mxGeometry>
        </mxCell>
        <mxCell id="B8ZehWBBjIDl2lozoN9I-37" value="" style="endArrow=classic;html=1;rounded=1;exitX=0.5;exitY=1;exitDx=0;exitDy=0;entryX=0.5;entryY=0;entryDx=0;entryDy=0;edgeStyle=orthogonalEdgeStyle;curved=1;sketch=1;labelBackgroundColor=#F1FAEE;strokeColor=#457B9D;fontColor=#1D3557;" edge="1" parent="WIyWlLk6GJQsqaUBKTNV-1" source="3FMjM7pCY8h0ESjjnFQf-19" target="3FMjM7pCY8h0ESjjnFQf-24">
          <mxGeometry width="50" height="50" relative="1" as="geometry">
            <mxPoint x="140" y="550" as="sourcePoint" />
            <mxPoint x="190" y="500" as="targetPoint" />
          </mxGeometry>
        </mxCell>
        <mxCell id="B8ZehWBBjIDl2lozoN9I-38" value="是" style="text;html=1;align=center;verticalAlign=middle;resizable=0;points=[];autosize=1;strokeColor=none;fillColor=none;rounded=1;sketch=1;fontColor=#1D3557;" vertex="1" parent="WIyWlLk6GJQsqaUBKTNV-1">
          <mxGeometry x="150" y="447" width="30" height="20" as="geometry" />
        </mxCell>
      </root>
    </mxGraphModel>
  </diagram>
</mxfile>
